<svg id="visual" viewBox="0 0 900 600" width="900" height="600" xmlns="http://www.w3.org/2000/svg" xmlns:xlink="http://www.w3.org/1999/xlink" version="1.1"><rect x="0" y="0" width="900" height="600" fill="#4c79d8"></rect><defs><linearGradient id="grad1_0" x1="33.3%" y1="0%" x2="100%" y2="100%"><stop offset="20%" stop-color="#476ab2" stop-opacity="1"></stop><stop offset="80%" stop-color="#476ab2" stop-opacity="1"></stop></linearGradient></defs><defs><linearGradient id="grad1_1" x1="33.3%" y1="0%" x2="100%" y2="100%"><stop offset="20%" stop-color="#476ab2" stop-opacity="1"></stop><stop offset="80%" stop-color="#4c79d8" stop-opacity="1"></stop></linearGradient></defs><defs><linearGradient id="grad2_0" x1="0%" y1="0%" x2="66.7%" y2="100%"><stop offset="20%" stop-color="#476ab2" stop-opacity="1"></stop><stop offset="80%" stop-color="#476ab2" stop-opacity="1"></stop></linearGradient></defs><defs><linearGradient id="grad2_1" x1="0%" y1="0%" x2="66.7%" y2="100%"><stop offset="20%" stop-color="#4c79d8" stop-opacity="1"></stop><stop offset="80%" stop-color="#476ab2" stop-opacity="1"></stop></linearGradient></defs><g transform="translate(900, 0)"><path d="M0 486.7C-44.7 437.2 -89.5 387.7 -154.2 372.3C-219 357 -303.7 375.8 -344.2 344.2C-384.7 312.5 -380.9 230.3 -397.3 164.6C-413.7 98.8 -450.2 49.4 -486.7 0L0 0Z" fill="#4972c5"></path><path d="M0 243.4C-22.4 218.6 -44.7 193.8 -77.1 186.2C-109.5 178.5 -151.9 187.9 -172.1 172.1C-192.3 156.3 -190.4 115.2 -198.6 82.3C-206.8 49.4 -225.1 24.7 -243.4 0L0 0Z" fill="#476ab2"></path></g><g transform="translate(0, 600)"><path d="M0 -486.7C46.8 -444.2 93.6 -401.7 160 -386.2C226.3 -370.7 312.3 -382.3 344.2 -344.2C376.1 -306.1 353.9 -218.3 368.6 -152.7C383.4 -87 435.1 -43.5 486.7 0L0 0Z" fill="#4972c5"></path><path d="M0 -243.4C23.4 -222.1 46.8 -200.8 80 -193.1C113.2 -185.3 156.1 -191.1 172.1 -172.1C188 -153 176.9 -109.2 184.3 -76.3C191.7 -43.5 217.5 -21.8 243.4 0L0 0Z" fill="#476ab2"></path></g></svg>