<svg version="1.2" xmlns="http://www.w3.org/2000/svg" viewBox="0 0 409 345" width="409" height="345">
	<title>LibraryBanner3-svg</title>
	<style>
		.s0 { fill: #407bff } 
		.s1 { opacity: .9;fill: #ffffff } 
		.s2 { fill: #263238 } 
		.s3 { fill: #000000 } 
		.s4 { opacity: .2;fill: #ffffff } 
		.s5 { opacity: .8;fill: #ffffff } 
		.s6 { opacity: .2;fill: #000000 } 
		.s7 { opacity: .4;fill: #ffffff } 
		.s8 { opacity: .7;fill: #ffffff } 
		.s9 { opacity: .4;fill: #000000 } 
		.s10 { opacity: .1;fill: #ffffff } 
		.s11 { opacity: .6;fill: #ffffff } 
		.s12 { opacity: .5;fill: #ffffff } 
		.s13 { fill: #ffffff } 
		.s14 { opacity: .1;fill: #000000 } 
		.s15 { fill: #e4897b } 
		.s16 { fill: #de5753 } 
	</style>
	<g id="freepik--background-simple--inject-16">
		<path id="Layer" class="s0" d="m203.5 16.2c82.3 37 7.6 103 55.1 139 47.6 36 176.8-5.6 127.5 87.7-57.9 109.7-311.3 94.5-365.9-40-54.6-134.5 101-223.8 183.3-186.7z"/>
		<path id="Layer" class="s1" d="m203.5 16.2c82.3 37 7.6 103 55.1 139 47.6 36 176.8-5.6 127.5 87.7-57.9 109.7-311.3 94.5-365.9-40-54.6-134.5 101-223.8 183.3-186.7z"/>
	</g>
	<g id="freepik--Lamp--inject-16">
		<path id="Layer" class="s2" d="m29.4 335.1q-0.3 0-0.6-0.1-0.2-0.1-0.4-0.3-0.3-0.2-0.4-0.5-0.1-0.3-0.1-0.6v-185.9c0-11.4 3.5-22.5 10-31.8 6.5-9.4 15.7-16.6 26.3-20.5 10.7-4 22.4-4.6 33.4-1.8 11 2.8 20.9 8.9 28.4 17.5 0.3 0.3 0.4 0.7 0.4 1.1-0.1 0.4-0.2 0.8-0.5 1-0.3 0.3-0.7 0.4-1.1 0.4-0.4 0-0.8-0.2-1.1-0.5-7-8.1-16.4-13.9-26.8-16.6-10.5-2.6-21.5-2-31.6 1.7-10.1 3.8-18.8 10.6-24.9 19.4-6.2 8.9-9.5 19.4-9.5 30.2v185.8q0 0.3-0.1 0.6-0.1 0.3-0.3 0.5-0.2 0.2-0.5 0.3-0.3 0.1-0.6 0.1z"/>
		<path id="Layer" class="s3" d="m61.9 336.9h-43.5l2.6-7.1h38.3l2.6 7.1z"/>
		<path id="Layer" class="s4" d="m61.9 336.9h-43.5l2.6-7.1h38.3l2.6 7.1z"/>
		<path id="Layer" class="s4" d="m61.9 336.9h-27.7v-7.1h25.1l2.6 7.1z"/>
		<path id="Layer" class="s2" d="m122.4 108l0.5-0.1c1.6-0.5 3.3-0.6 5-0.4 1.7 0.2 3.3 0.7 4.8 1.5 1.5 0.9 2.8 2 3.9 3.3 1 1.4 1.8 2.9 2.3 4.5l0.4 1.7-25.4 7.2-0.5-1.7c-0.4-1.6-0.6-3.3-0.4-5 0.2-1.7 0.8-3.3 1.6-4.8 0.8-1.5 1.9-2.8 3.3-3.9 1.3-1 2.8-1.8 4.5-2.3z"/>
		<path id="Layer" class="s4" d="m138.9 117.1l0.4 1.4-25.4 7.2-0.4-1.4c-0.5-1.7-0.6-3.4-0.4-5.2 0.2-1.7 0.7-3.3 1.6-4.8 0.8-1.6 2-2.9 3.3-4 1.4-1 3-1.8 4.6-2.3q0.4-0.1 0.7-0.2 0.4-0.1 0.8-0.1 0.3-0.1 0.7-0.1 0.3-0.1 0.7-0.1c1.5-0.1 3 0.1 4.4 0.5 1.4 0.4 2.8 1.1 4 2 1.2 0.8 2.3 1.9 3.1 3.1 0.9 1.2 1.5 2.6 1.9 4z"/>
		<path id="Layer" class="s4" d="m138.9 117.1l0.4 1.4-16.2 4.6-0.4-1.4c-1.7-6.1-0.5-11.9 2.8-14.2 1.5-0.1 3 0.1 4.4 0.5 1.4 0.4 2.8 1.1 4 1.9 1.2 0.9 2.3 2 3.1 3.2 0.9 1.2 1.5 2.5 1.9 4z"/>
	</g>
	<g id="freepik--Books--inject-16">
		<path id="Layer" class="s0" d="m248.8 277.9h-60.2v-26.1h60.2z"/>
		<path id="Layer" class="s5" d="m248.8 277.9h-60.2v-26.1h60.2z"/>
		<path id="Layer" class="s6" d="m244 254.4h-55.4v-2.6h55.3l0.1 2.6z"/>
		<path id="Layer" class="s6" d="m244 256.6l-50 1 50 1.1v-2.1z"/>
		<path id="Layer" class="s6" d="m244 266.2l-52.9 0.9 52.9 0.8v-1.7z"/>
		<path id="Layer" class="s6" d="m244 271.9l-52.5 1.1 52.5 1v-2.1z"/>
		<path id="Layer" class="s6" d="m188.6 260.3l50.7 1.5-50.7 1.1v-2.6z"/>
		<path id="Layer" class="s2" d="m323 264.7c0 1.6-0.3 3.1-0.9 4.6-0.6 1.4-1.5 2.7-2.6 3.8-1.1 1.1-2.4 2-3.8 2.6-1.4 0.6-3 0.9-4.5 0.8l-125.4 0.1q-0.2 0-0.3 0-0.2 0.1-0.3 0.2-0.1 0.1-0.2 0.3-0.1 0.2-0.1 0.3v1q0 0.1 0.1 0.3 0 0.2 0.2 0.3 0.1 0.1 0.3 0.2 0.1 0 0.3 0h126c1.9 0 3.8-0.3 5.6-1.1 1.7-0.7 3.3-1.8 4.7-3.2 1.3-1.3 2.4-2.9 3.1-4.7 0.8-1.8 1.1-3.7 1.1-5.6 0-1.9-0.4-3.8-1.2-5.6-0.8-1.7-1.9-3.3-3.3-4.7-1.4-1.3-3-2.3-4.8-3.1-1.8-0.7-3.7-1-5.6-1h-125.6q-0.2 0-0.3 0.1-0.2 0-0.3 0.1-0.1 0.2-0.2 0.3-0.1 0.2-0.1 0.4v0.9q0 0.2 0.1 0.3 0 0.2 0.2 0.3 0.1 0.1 0.3 0.2 0.1 0.1 0.3 0.1h125c1.6 0 3.1 0.3 4.6 0.9 1.4 0.6 2.8 1.4 3.9 2.5 1.1 1.1 2 2.4 2.7 3.9 0.6 1.4 1 3 1 4.5z"/>
		<path id="Layer" class="s7" d="m323 264.7c0 1.6-0.3 3.1-0.9 4.6-0.6 1.4-1.5 2.7-2.6 3.8-1.1 1.1-2.4 2-3.8 2.6-1.4 0.6-3 0.9-4.5 0.8l-125.4 0.1q-0.2 0-0.3 0-0.2 0.1-0.3 0.2-0.1 0.1-0.2 0.3-0.1 0.2-0.1 0.3v1q0 0.1 0.1 0.3 0 0.2 0.2 0.3 0.1 0.1 0.3 0.2 0.1 0 0.3 0h126c1.9 0 3.8-0.3 5.6-1.1 1.7-0.7 3.3-1.8 4.7-3.2 1.3-1.3 2.4-2.9 3.1-4.7 0.8-1.8 1.1-3.7 1.1-5.6 0-1.9-0.4-3.8-1.2-5.6-0.8-1.7-1.9-3.3-3.3-4.7-1.4-1.3-3-2.3-4.8-3.1-1.8-0.7-3.7-1-5.6-1h-125.6q-0.2 0-0.3 0.1-0.2 0-0.3 0.1-0.1 0.2-0.2 0.3-0.1 0.2-0.1 0.4v0.9q0 0.2 0.1 0.3 0 0.2 0.2 0.3 0.1 0.1 0.3 0.2 0.1 0.1 0.3 0.1h125c1.6 0 3.1 0.3 4.6 0.9 1.4 0.6 2.8 1.4 3.9 2.5 1.1 1.1 2 2.4 2.7 3.9 0.6 1.4 1 3 1 4.5z"/>
		<path id="Layer" class="s0" d="m368.8 264.9c0 1.7-0.4 3.4-1 5-0.7 1.6-1.7 3-2.9 4.3-1.2 1.2-2.6 2.1-4.2 2.8-1.6 0.7-3.3 1-5 1h-111.7v-26.2h111.7c1.7 0 3.4 0.3 5 1 1.6 0.7 3 1.6 4.2 2.8 1.2 1.2 2.2 2.7 2.9 4.3 0.6 1.6 0.9 3.3 0.9 5z"/>
		<path id="Layer" class="s8" d="m244 251.8v26.2h111.7c3.4-0.1 6.6-1.5 9-4 2.4-2.4 3.7-5.7 3.7-9.1 0-3.4-1.3-6.7-3.7-9.1-2.4-2.5-5.6-3.9-9-4z"/>
		<path id="Layer" class="s6" d="m244 258.7v-2.1l111.3 0.9-111.3 1.2z"/>
		<path id="Layer" class="s6" d="m244 267.9v-1.7l50 1.8-50-0.1z"/>
		<path id="Layer" class="s6" d="m244 274v-2.1l80.6 1.2-80.6 0.9z"/>
		<path id="Layer" class="s6" d="m355.9 254.4q0.7 0 1.5 0.1 0.8 0.1 1.6 0.4 0.7 0.3 1.4 0.7 0.7 0.5 1.3 1-0.3 0.5-0.5 1-0.3 0.5-0.5 1.1-0.2 0.5-0.3 1-0.2 0.6-0.4 1.1l-111.6 0.9 111.4 0.3q-0.2 0.7-0.2 1.5-0.1 0.7-0.1 1.5 0 0.7 0.1 1.5 0.1 0.7 0.3 1.4l-75.2 1.7 75.9 0.9q0.2 0.6 0.5 1.3 0.3 0.7 0.6 1.3 0.3 0.7 0.7 1.3 0.3 0.6 0.7 1.2c2.3-1.5 4-3.8 4.9-6.4 1-2.7 1-5.5 0.2-8.2-0.9-2.7-2.5-5-4.8-6.7-2.2-1.6-4.9-2.5-7.7-2.5h-111.7v2.5z"/>
		<path id="Layer" class="s2" d="m367.7 264.7c0 1.6-0.3 3.1-0.9 4.6-0.6 1.4-1.5 2.7-2.6 3.8-1.1 1.1-2.4 2-3.8 2.6-1.4 0.5-3 0.9-4.5 0.9h-113.8q-0.2 0-0.3 0-0.2 0.1-0.3 0.2-0.1 0.1-0.2 0.3-0.1 0.2-0.1 0.3v1q0 0.1 0.1 0.3 0.1 0.2 0.2 0.3 0.1 0.1 0.3 0.2 0.1 0 0.3 0h114.4c1.9 0 3.8-0.3 5.6-1.1 1.8-0.7 3.4-1.8 4.7-3.2 1.4-1.3 2.5-2.9 3.2-4.7 0.7-1.8 1.1-3.7 1-5.6 0-1.9-0.4-3.8-1.2-5.6-0.8-1.7-1.9-3.3-3.2-4.7-1.4-1.3-3.1-2.3-4.8-3.1-1.8-0.7-3.7-1-5.6-1h-114.1q-0.1 0-0.3 0.1-0.1 0-0.3 0.1-0.1 0.2-0.2 0.3 0 0.2 0 0.4v0.9q0 0.2 0 0.3 0.1 0.2 0.2 0.3 0.2 0.1 0.3 0.2 0.2 0.1 0.4 0.1h113.3c1.6 0 3.2 0.3 4.6 0.9 1.5 0.6 2.8 1.4 3.9 2.5 1.2 1.1 2.1 2.4 2.7 3.9 0.6 1.4 1 3 1 4.5z"/>
		<path id="Layer" class="s2" d="m355.3 261.4v10.5l-3.8-3.8-3.7 3.7v-10.4h7.5z"/>
		<path id="Layer" class="s0" d="m197.7 309.4l162.6 0.1v26.1h-162.6z"/>
		<path id="Layer" class="s8" d="m197.7 309.4l162.6 0.1v26.1h-162.6z"/>
		<path id="Layer" class="s6" d="m360.3 316.4v-2.2l-111.4 0.9 111.4 1.3z"/>
		<path id="Layer" class="s6" d="m360.3 325.5v-1.6l-50 1.8 50-0.2z"/>
		<path id="Layer" class="s6" d="m360.3 331.7v-2.1l-80.6 1.2 80.6 0.9z"/>
		<path id="Layer" class="s6" d="m234 309.4l-2.3 19.6 2.7-3q0.4 1.3 0.9 2.6 0.5 1.3 1.1 2.5 0.7 1.2 1.5 2.4 0.7 1.1 1.6 2.1 0.7-0.8 1.3-1.7 0.6-0.9 1.1-1.9 0.5-0.9 0.9-1.9 0.5-1 0.9-2l75.9-0.8-75.2-1.7q0.1-0.4 0.1-0.8 0.1-0.4 0.1-0.8 0.1-0.4 0.1-0.8 0-0.4 0-0.8 0-0.4 0-0.7 0-0.3 0-0.7-0.1-0.3-0.1-0.7-0.1-0.3-0.1-0.6l111.4-0.3-111.7-0.9q-0.1-0.6-0.3-1.1-0.2-0.5-0.4-1.1-0.2-0.5-0.4-1-0.3-0.5-0.5-1 0.6-0.6 1.2-1 0.7-0.4 1.5-0.7 0.7-0.3 1.5-0.4 0.8-0.2 1.6-0.2h111.9v-2.5z"/>
		<path id="Layer" class="s0" d="m236.5 322.4c0 1.5 0.3 3.1 0.9 4.5 0.6 1.4 1.5 2.7 2.6 3.8 1.1 1.1 2.4 2 3.8 2.6 1.5 0.6 3 0.9 4.6 0.9h113.7q0.2 0 0.4 0.1 0.1 0 0.3 0.2 0.1 0.1 0.1 0.2 0.1 0.2 0.1 0.4v0.9q0 0.2-0.1 0.3 0 0.2-0.1 0.3-0.2 0.1-0.3 0.2-0.2 0.1-0.4 0.1h-177c-1.9 0-3.8-0.4-5.6-1.1-1.7-0.8-3.3-1.9-4.7-3.2-1.3-1.4-2.4-3-3.1-4.8-0.7-1.7-1.1-3.6-1.1-5.6 0.1-1.9 0.5-3.8 1.2-5.5 0.8-1.8 1.9-3.4 3.3-4.7 1.4-1.4 3-2.4 4.8-3.1 1.8-0.7 3.7-1.1 5.6-1.1h176.6q0.2 0 0.4 0.1 0.1 0 0.3 0.2 0.1 0.1 0.1 0.3 0.1 0.1 0.1 0.3v0.9q0 0.2-0.1 0.4 0 0.1-0.1 0.2-0.2 0.2-0.3 0.2-0.2 0.1-0.4 0.1h-113.4c-1.6 0-3.1 0.3-4.6 0.9-1.4 0.6-2.8 1.5-3.9 2.6-1.1 1.1-2 2.4-2.7 3.8-0.6 1.5-0.9 3-1 4.6z"/>
		<path id="Layer" class="s9" d="m236.5 322.4c0 1.5 0.3 3.1 0.9 4.5 0.6 1.4 1.5 2.7 2.6 3.8 1.1 1.1 2.4 2 3.8 2.6 1.5 0.6 3 0.9 4.6 0.9h113.7q0.2 0 0.4 0.1 0.1 0 0.3 0.2 0.1 0.1 0.1 0.2 0.1 0.2 0.1 0.4v0.9q0 0.2-0.1 0.3 0 0.2-0.1 0.3-0.2 0.1-0.3 0.2-0.2 0.1-0.4 0.1h-177c-1.9 0-3.8-0.4-5.6-1.1-1.7-0.8-3.3-1.9-4.7-3.2-1.3-1.4-2.4-3-3.1-4.8-0.7-1.7-1.1-3.6-1.1-5.6 0.1-1.9 0.5-3.8 1.2-5.5 0.8-1.8 1.9-3.4 3.3-4.7 1.4-1.4 3-2.4 4.8-3.1 1.8-0.7 3.7-1.1 5.6-1.1h176.6q0.2 0 0.4 0.1 0.1 0 0.3 0.2 0.1 0.1 0.1 0.3 0.1 0.1 0.1 0.3v0.9q0 0.2-0.1 0.4 0 0.1-0.1 0.2-0.2 0.2-0.3 0.2-0.2 0.1-0.4 0.1h-113.4c-1.6 0-3.1 0.3-4.6 0.9-1.4 0.6-2.8 1.5-3.9 2.6-1.1 1.1-2 2.4-2.7 3.8-0.6 1.5-0.9 3-1 4.6z"/>
		<path id="Layer" class="s0" d="m236.5 322.4c0 1.5 0.3 3.1 0.9 4.5 0.6 1.4 1.5 2.7 2.6 3.8 1.1 1.1 2.4 2 3.8 2.6 1.5 0.6 3 0.9 4.6 0.9h113.7q0.2 0 0.4 0.1 0.1 0 0.3 0.2 0.1 0.1 0.1 0.2 0.1 0.2 0.1 0.4v0.9q0 0.2-0.1 0.3 0 0.2-0.1 0.3-0.2 0.1-0.3 0.2-0.2 0.1-0.4 0.1h-114.4c-1.9 0-3.8-0.4-5.6-1.1-1.7-0.8-3.3-1.9-4.7-3.2-1.3-1.4-2.4-3-3.1-4.8-0.8-1.7-1.1-3.6-1.1-5.6 0-1.9 0.5-3.8 1.2-5.5 0.8-1.8 1.9-3.4 3.3-4.7 1.4-1.4 3-2.4 4.8-3.1 1.8-0.7 3.7-1.1 5.6-1.1h114q0.2 0 0.3 0.1 0.2 0 0.3 0.2 0.1 0.1 0.2 0.3 0.1 0.1 0.1 0.3v0.9q0 0.2-0.1 0.4-0.1 0.1-0.2 0.2-0.1 0.2-0.3 0.2-0.1 0.1-0.3 0.1h-113.4c-1.6 0-3.1 0.3-4.6 0.9-1.4 0.6-2.8 1.5-3.9 2.6-1.1 1.1-2 2.4-2.7 3.8-0.6 1.5-0.9 3-1 4.6z"/>
		<path id="Layer" class="s2" d="m248.9 319.1v10.4l3.8-3.8 3.7 3.7v-10.3h-7.5z"/>
		<path id="Layer" class="s10" d="m236.5 322.4c0 1.5 0.3 3.1 0.9 4.5 0.6 1.4 1.5 2.7 2.6 3.8 1.1 1.1 2.4 2 3.8 2.6 1.5 0.6 3 0.9 4.6 0.9h113.7q0.2 0 0.4 0.1 0.1 0 0.3 0.2 0.1 0.1 0.1 0.2 0.1 0.2 0.1 0.4v0.9q0 0.2-0.1 0.3 0 0.2-0.1 0.3-0.2 0.1-0.3 0.2-0.2 0.1-0.4 0.1h-114.4c-1.9 0-3.8-0.4-5.6-1.1-1.7-0.8-3.3-1.9-4.7-3.2-1.3-1.4-2.4-3-3.1-4.8-0.8-1.7-1.1-3.6-1.1-5.6 0-1.9 0.5-3.8 1.2-5.5 0.8-1.8 1.9-3.4 3.3-4.7 1.4-1.4 3-2.4 4.8-3.1 1.8-0.7 3.7-1.1 5.6-1.1h114q0.2 0 0.3 0.1 0.2 0 0.3 0.2 0.1 0.1 0.2 0.3 0.1 0.1 0.1 0.3v0.9q0 0.2-0.1 0.4-0.1 0.1-0.2 0.2-0.1 0.2-0.3 0.2-0.1 0.1-0.3 0.1h-113.4c-1.6 0-3.1 0.3-4.6 0.9-1.4 0.6-2.8 1.5-3.9 2.6-1.1 1.1-2 2.4-2.7 3.8-0.6 1.5-0.9 3-1 4.6z"/>
		<path id="Layer" class="s10" d="m227.9 332.6q1 1.1 2.2 1.8 1.2 0.8 2.5 1.4 1.4 0.5 2.8 0.8 1.4 0.3 2.8 0.3h-4.8c-1.9 0-3.8-0.4-5.6-1.1-1.8-0.8-3.4-1.8-4.7-3.2-1.4-1.4-2.4-3-3.2-4.8-0.7-1.7-1.1-3.6-1-5.6 0-1.9 0.4-3.8 1.2-5.5 0.8-1.8 1.9-3.4 3.3-4.7 1.3-1.3 3-2.4 4.7-3.1 1.8-0.7 3.7-1.1 5.7-1.1h4.8c-1.9 0-3.8 0.4-5.6 1.1-1.8 0.7-3.4 1.8-4.8 3.1-1.4 1.3-2.5 2.9-3.3 4.7-0.8 1.7-1.2 3.6-1.2 5.5q0 1.5 0.2 2.9 0.3 1.4 0.9 2.8 0.5 1.3 1.3 2.5 0.8 1.2 1.8 2.2z"/>
		<path id="Layer" class="s10" d="m218.3 332.6q1 1.1 2.2 1.8 1.2 0.8 2.5 1.4 1.3 0.5 2.7 0.8 1.4 0.3 2.9 0.3h-4.9c-1.9 0-3.8-0.4-5.6-1.1-1.7-0.8-3.3-1.8-4.7-3.2-1.3-1.4-2.4-3-3.1-4.8-0.7-1.7-1.1-3.6-1.1-5.6 0.1-1.9 0.5-3.8 1.2-5.5 0.8-1.8 1.9-3.4 3.3-4.7 1.4-1.3 3-2.4 4.8-3.1 1.8-0.7 3.7-1.1 5.6-1.1h4.8c-1.9 0-3.8 0.4-5.6 1.1-1.8 0.7-3.4 1.7-4.8 3.1-1.4 1.3-2.5 2.9-3.3 4.7-0.7 1.7-1.2 3.6-1.2 5.5q0 1.5 0.3 2.9 0.2 1.4 0.8 2.8 0.5 1.3 1.3 2.5 0.9 1.2 1.9 2.2z"/>
		<path id="Layer" class="s0" d="m210.4 280.6h162.6v26.2h-162.6z"/>
		<path id="Layer" class="s5" d="m210.4 280.6h162.6v26.2h-162.6z"/>
		<path id="Layer" class="s6" d="m373 287.5v-2.1l-111.3 0.9 111.3 1.2z"/>
		<path id="Layer" class="s6" d="m373 296.7v-1.6l-50 1.8 50-0.2z"/>
		<path id="Layer" class="s6" d="m373 302.8v-2.1l-80.6 1.2 80.6 0.9z"/>
		<path id="Layer" class="s6" d="m246.8 280.6l-2.4 19.5 2.8-3q0.3 1.4 0.8 2.6 0.5 1.3 1.2 2.5 0.6 1.3 1.4 2.4 0.8 1.1 1.7 2.2 0.6-0.9 1.2-1.8 0.6-0.9 1.1-1.8 0.5-1 1-2 0.4-0.9 0.8-1.9l75.9-0.9-75.2-1.7q0.2-0.7 0.3-1.4 0.1-0.8 0.1-1.5 0-0.8-0.1-1.5 0-0.8-0.2-1.5l111.4-0.3-111.6-0.8q-0.1-0.6-0.3-1.1-0.2-0.6-0.4-1.1-0.2-0.5-0.4-1.1-0.3-0.5-0.5-1 0.6-0.5 1.2-0.9 0.7-0.5 1.5-0.7 0.7-0.3 1.5-0.5 0.8-0.1 1.6-0.1h111.8v-2.6z"/>
		<path id="Layer" class="s2" d="m249.3 293.6c0 1.5 0.3 3 0.9 4.5 0.6 1.4 1.4 2.7 2.5 3.8 1.1 1.1 2.4 2 3.9 2.6 1.4 0.6 3 0.9 4.5 0.9h113.8q0.2 0 0.3 0 0.2 0.1 0.3 0.2 0.1 0.2 0.2 0.3 0 0.2 0 0.3v1q0 0.2 0 0.3-0.1 0.2-0.2 0.3-0.1 0.1-0.3 0.2-0.1 0.1-0.3 0.1h-168c-1.9 0-3.8-0.4-5.6-1.2-1.8-0.7-3.4-1.8-4.7-3.1-1.4-1.4-2.4-3-3.2-4.8-0.7-1.8-1.1-3.7-1-5.6 0-1.9 0.4-3.8 1.2-5.5 0.7-1.8 1.9-3.4 3.2-4.7 1.4-1.4 3-2.4 4.8-3.1 1.8-0.7 3.7-1.1 5.6-1.1h167.7q0.2 0 0.3 0.1 0.2 0 0.3 0.2 0.1 0.1 0.2 0.2 0.1 0.2 0.1 0.4v0.9q-0.1 0.2-0.1 0.3-0.1 0.2-0.2 0.3-0.1 0.1-0.3 0.2-0.1 0.1-0.3 0.1h-113.4c-6.6 0-12.2 5.3-12.2 11.8z"/>
		<path id="Layer" class="s7" d="m249.3 293.6c0 1.5 0.3 3 0.9 4.5 0.6 1.4 1.4 2.7 2.5 3.8 1.1 1.1 2.4 2 3.9 2.6 1.4 0.6 3 0.9 4.5 0.9h113.8q0.2 0 0.3 0 0.2 0.1 0.3 0.2 0.1 0.2 0.2 0.3 0 0.2 0 0.3v1q0 0.2 0 0.3-0.1 0.2-0.2 0.3-0.1 0.1-0.3 0.2-0.1 0.1-0.3 0.1h-168c-1.9 0-3.8-0.4-5.6-1.2-1.8-0.7-3.4-1.8-4.7-3.1-1.4-1.4-2.4-3-3.2-4.8-0.7-1.8-1.1-3.7-1-5.6 0-1.9 0.4-3.8 1.2-5.5 0.7-1.8 1.9-3.4 3.2-4.7 1.4-1.4 3-2.4 4.8-3.1 1.8-0.7 3.7-1.1 5.6-1.1h167.7q0.2 0 0.3 0.1 0.2 0 0.3 0.2 0.1 0.1 0.2 0.2 0.1 0.2 0.1 0.4v0.9q-0.1 0.2-0.1 0.3-0.1 0.2-0.2 0.3-0.1 0.1-0.3 0.2-0.1 0.1-0.3 0.1h-113.4c-6.6 0-12.2 5.3-12.2 11.8z"/>
		<path id="Layer" class="s2" d="m249.3 293.6c0 1.5 0.3 3 0.9 4.5 0.6 1.4 1.4 2.7 2.5 3.8 1.1 1.1 2.4 2 3.9 2.6 1.4 0.6 3 0.9 4.5 0.9h113.8q0.2 0 0.3 0 0.2 0.1 0.3 0.2 0.1 0.2 0.2 0.3 0 0.2 0 0.3v1q0 0.2 0 0.3-0.1 0.2-0.2 0.3-0.1 0.1-0.3 0.2-0.1 0.1-0.3 0.1h-114.4c-2 0-3.9-0.4-5.6-1.2-1.8-0.7-3.4-1.8-4.7-3.1-1.4-1.4-2.5-3-3.2-4.8-0.7-1.8-1.1-3.7-1.1-5.6 0.1-1.9 0.5-3.8 1.3-5.5 0.7-1.8 1.8-3.4 3.2-4.7 1.4-1.4 3-2.4 4.8-3.1 1.8-0.8 3.7-1.1 5.6-1.1h114.1q0.2 0 0.3 0.1 0.2 0 0.3 0.2 0.1 0.1 0.2 0.2 0.1 0.2 0.1 0.4v0.9q-0.1 0.2-0.1 0.3-0.1 0.2-0.2 0.3-0.1 0.1-0.3 0.2-0.1 0.1-0.3 0.1h-113.4c-6.6 0-12.2 5.3-12.2 11.8z"/>
		<path id="Layer" class="s0" d="m270.7 286.5v10.5l3.8-3.8 3.7 3.7v-10.4h-7.5z"/>
		<path id="Layer" class="s11" d="m249.3 293.6c0 1.5 0.3 3 0.9 4.5 0.6 1.4 1.4 2.7 2.5 3.8 1.1 1.1 2.4 2 3.9 2.6 1.4 0.6 3 0.9 4.5 0.9h113.8q0.2 0 0.3 0 0.2 0.1 0.3 0.2 0.1 0.2 0.2 0.3 0 0.2 0 0.3v1q0 0.2 0 0.3-0.1 0.2-0.2 0.3-0.1 0.1-0.3 0.2-0.1 0.1-0.3 0.1h-114.4c-2 0-3.9-0.4-5.6-1.2-1.8-0.7-3.4-1.8-4.7-3.1-1.4-1.4-2.5-3-3.2-4.8-0.7-1.8-1.1-3.7-1.1-5.6 0.1-1.9 0.5-3.8 1.3-5.5 0.7-1.8 1.8-3.4 3.2-4.7 1.4-1.4 3-2.4 4.8-3.1 1.8-0.8 3.7-1.1 5.6-1.1h114.1q0.2 0 0.3 0.1 0.2 0 0.3 0.2 0.1 0.1 0.2 0.2 0.1 0.2 0.1 0.4v0.9q-0.1 0.2-0.1 0.3-0.1 0.2-0.2 0.3-0.1 0.1-0.3 0.2-0.1 0.1-0.3 0.1h-113.4c-6.6 0-12.2 5.3-12.2 11.8z"/>
		<path id="Layer" class="s6" d="m240.7 286.7h-37.2c-0.9 0.8-1.7 1.8-2.2 2.9-0.5 1.1-0.8 2.4-0.8 3.6 0 1.2 0.3 2.5 0.8 3.6 0.5 1.1 1.3 2.1 2.2 2.9h37.2c-2.4-3.3-2.4-9.7 0-13z"/>
		<path id="Layer" class="s0" d="m298.2 194.1h60.3v26.2h-60.3z"/>
		<path id="Layer" class="s8" d="m298.2 194.1h60.3v26.2h-60.3z"/>
		<path id="Layer" class="s6" d="m303.1 196.7h55.4v-2.6h-55.4l-0.1 2.6z"/>
		<path id="Layer" class="s6" d="m303.1 198.9l49.9 1.1-50 1.1v-2.2z"/>
		<path id="Layer" class="s6" d="m303.1 208.6l52.9 0.9-53 0.7v-1.6z"/>
		<path id="Layer" class="s6" d="m303.1 214.2l52.4 1.1-52.5 1.1v-2.2z"/>
		<path id="Layer" class="s6" d="m358.5 202.6l-50.8 1.6 50.8 1v-2.6z"/>
		<path id="Layer" class="s0" d="m224 207.1c0 1.5 0.3 3.1 0.9 4.5 0.6 1.4 1.5 2.7 2.6 3.8 1.1 1.1 2.4 2 3.8 2.6 1.4 0.6 3 0.9 4.5 0.9h125.4q0.2 0 0.4 0.1 0.1 0 0.3 0.2 0.1 0.1 0.1 0.2 0.1 0.2 0.1 0.4v0.9q0 0.2-0.1 0.3 0 0.2-0.1 0.3-0.2 0.1-0.3 0.2-0.2 0.1-0.4 0.1h-126c-1.9 0-3.8-0.4-5.5-1.1-1.8-0.7-3.4-1.8-4.8-3.2-1.3-1.3-2.4-2.9-3.1-4.7-0.8-1.8-1.1-3.7-1.1-5.6 0-1.9 0.4-3.8 1.2-5.6 0.8-1.7 1.9-3.3 3.3-4.7 1.4-1.3 3-2.4 4.8-3.1 1.7-0.7 3.6-1 5.6-1h125.6q0.2 0 0.4 0 0.1 0.1 0.3 0.2 0.1 0.2 0.1 0.3 0.1 0.2 0.1 0.3v1q0 0.2-0.1 0.3 0 0.2-0.1 0.3-0.2 0.1-0.3 0.2-0.2 0.1-0.4 0.1h-125c-6.5-0.1-12.2 5.3-12.2 11.8z"/>
		<path id="Layer" class="s7" d="m224 207.1c0 1.5 0.3 3.1 0.9 4.5 0.6 1.4 1.5 2.7 2.6 3.8 1.1 1.1 2.4 2 3.8 2.6 1.4 0.6 3 0.9 4.5 0.9h125.4q0.2 0 0.4 0.1 0.1 0 0.3 0.2 0.1 0.1 0.1 0.2 0.1 0.2 0.1 0.4v0.9q0 0.2-0.1 0.3 0 0.2-0.1 0.3-0.2 0.1-0.3 0.2-0.2 0.1-0.4 0.1h-126c-1.9 0-3.8-0.4-5.5-1.1-1.8-0.7-3.4-1.8-4.8-3.2-1.3-1.3-2.4-2.9-3.1-4.7-0.8-1.8-1.1-3.7-1.1-5.6 0-1.9 0.4-3.8 1.2-5.6 0.8-1.7 1.9-3.3 3.3-4.7 1.4-1.3 3-2.4 4.8-3.1 1.7-0.7 3.6-1 5.6-1h125.6q0.2 0 0.4 0 0.1 0.1 0.3 0.2 0.1 0.2 0.1 0.3 0.1 0.2 0.1 0.3v1q0 0.2-0.1 0.3 0 0.2-0.1 0.3-0.2 0.1-0.3 0.2-0.2 0.1-0.4 0.1h-125c-6.5-0.1-12.2 5.3-12.2 11.8z"/>
		<path id="Layer" class="s0" d="m178.3 207.2c0 1.7 0.3 3.4 1 5 0.6 1.6 1.6 3.1 2.8 4.3 1.2 1.2 2.7 2.2 4.3 2.8 1.6 0.7 3.3 1 5 1h111.7l-0.1-26.2h-111.6c-1.7 0-3.5 0.4-5 1-1.6 0.7-3.1 1.7-4.3 2.9-1.2 1.2-2.2 2.6-2.8 4.2-0.7 1.6-1 3.3-1 5z"/>
		<path id="Layer" class="s12" d="m303.1 194.1l-0.1 26.2h-111.6c-3.4-0.1-6.7-1.5-9.1-3.9-2.3-2.5-3.7-5.8-3.7-9.2 0-3.4 1.4-6.7 3.7-9.1 2.4-2.4 5.7-3.9 9.1-4z"/>
		<path id="Layer" class="s6" d="m303.1 201.1l-0.1-2.2-111.3 0.9 111.3 1.3z"/>
		<path id="Layer" class="s6" d="m303.1 210.2l-0.1-1.6-49.9 1.8 49.9-0.2z"/>
		<path id="Layer" class="s6" d="m303.1 216.4l-0.1-2.2-80.5 1.3 80.5 0.9z"/>
		<path id="Layer" class="s6" d="m191.2 196.7q-0.8 0-1.6 0.1-0.8 0.2-1.5 0.5-0.8 0.3-1.5 0.7-0.6 0.4-1.2 0.9 0.2 0.5 0.5 1.1 0.2 0.5 0.4 1 0.2 0.5 0.4 1.1 0.2 0.5 0.3 1.1l111.7 0.9-111.4 0.2q0 0.4 0.1 0.7 0 0.3 0.1 0.7 0 0.3 0 0.7 0 0.3 0 0.7 0 0.4 0 0.8 0 0.4-0.1 0.8 0 0.4-0.1 0.8 0 0.4-0.1 0.8l75.2 1.6-75.9 0.9q-0.3 0.7-0.6 1.4-0.3 0.6-0.6 1.3-0.3 0.6-0.6 1.3-0.4 0.6-0.8 1.2c-2.3-1.6-4-3.9-4.9-6.5-0.9-2.6-1-5.5-0.1-8.2 0.8-2.6 2.5-5 4.7-6.6 2.3-1.7 5-2.6 7.8-2.6h111.7v2.6z"/>
		<path id="Layer" class="s0" d="m179.3 207.1c0 1.5 0.3 3.1 0.9 4.5 0.6 1.4 1.5 2.7 2.6 3.8 1.1 1.1 2.4 2 3.8 2.6 1.5 0.6 3 0.9 4.6 0.9h113.7q0.2 0 0.4 0.1 0.1 0 0.2 0.2 0.2 0.1 0.2 0.2 0.1 0.2 0.1 0.4v0.9q0 0.2-0.1 0.3 0 0.2-0.2 0.3-0.1 0.1-0.2 0.2-0.2 0.1-0.4 0.1h-114.4c-1.9 0-3.8-0.4-5.6-1.1-1.7-0.8-3.3-1.8-4.7-3.2-1.3-1.4-2.4-3-3.1-4.7-0.7-1.8-1.1-3.7-1.1-5.6 0-1.9 0.5-3.8 1.2-5.6 0.8-1.7 1.9-3.3 3.3-4.7 1.4-1.3 3-2.4 4.8-3.1 1.8-0.7 3.7-1 5.6-1h114q0.2 0 0.4 0 0.1 0.1 0.2 0.2 0.2 0.2 0.2 0.3 0.1 0.2 0.1 0.3v1q0 0.2-0.1 0.3 0 0.2-0.2 0.3-0.1 0.1-0.2 0.2-0.2 0.1-0.4 0.1h-113.4c-1.6 0-3.1 0.3-4.6 0.8-1.4 0.6-2.8 1.5-3.9 2.6-1.1 1.1-2 2.4-2.7 3.8-0.6 1.5-0.9 3-1 4.6z"/>
		<path id="Layer" class="s2" d="m191.7 203.8v10.4l3.8-3.8 3.7 3.7v-10.4h-7.5z"/>
		<path id="Layer" class="s0" d="m224.5 223h162.6v26.1h-162.6z"/>
		<path id="Layer" class="s8" d="m224.5 223h162.6v26.1h-162.6z"/>
		<path id="Layer" class="s6" d="m387.1 229.9v-2.2l-111.4 0.9 111.4 1.3z"/>
		<path id="Layer" class="s6" d="m387.1 239.1v-1.7l-50 1.8 50-0.1z"/>
		<path id="Layer" class="s6" d="m387.1 245.2v-2.1l-80.6 1.2 80.6 0.9z"/>
		<path id="Layer" class="s6" d="m260.8 223l-2.3 19.5 2.7-3q0.4 1.3 0.9 2.6 0.5 1.3 1.2 2.5 0.6 1.2 1.4 2.4 0.8 1.1 1.7 2.1 0.6-0.8 1.2-1.7 0.6-0.9 1.1-1.9 0.5-0.9 1-1.9 0.4-1 0.8-2l75.9-0.8-75.2-1.7q0.1-0.4 0.1-0.8 0.1-0.4 0.2-0.8 0-0.4 0-0.8 0.1-0.4 0.1-0.8 0-0.4-0.1-0.7 0-0.3 0-0.7 0-0.3-0.1-0.7 0-0.3-0.1-0.6l111.4-0.3-111.7-0.9q-0.1-0.6-0.3-1.1-0.2-0.5-0.4-1.1-0.2-0.5-0.4-1-0.3-0.5-0.5-1 0.6-0.6 1.2-1 0.7-0.4 1.5-0.7 0.7-0.3 1.5-0.4 0.8-0.2 1.6-0.2h111.9v-2.5z"/>
		<path id="Layer" class="s2" d="m263.3 235.9c0 1.6 0.4 3.1 0.9 4.5 0.6 1.5 1.5 2.8 2.6 3.9 1.1 1.1 2.4 1.9 3.9 2.5 1.4 0.6 2.9 0.9 4.5 0.9h113.8q0.2 0 0.3 0.1 0.2 0.1 0.3 0.2 0.1 0.1 0.2 0.3 0.1 0.1 0.1 0.3v0.9q0 0.2-0.1 0.4-0.1 0.1-0.2 0.3-0.1 0.1-0.3 0.1-0.1 0.1-0.3 0.1h-177c-1.9 0-3.8-0.4-5.6-1.1-1.8-0.7-3.4-1.8-4.7-3.2-1.4-1.3-2.4-3-3.1-4.7-0.8-1.8-1.1-3.7-1.1-5.6 0-2 0.4-3.8 1.2-5.6 0.8-1.8 1.9-3.4 3.3-4.7 1.3-1.3 3-2.4 4.8-3.1 1.7-0.7 3.6-1.1 5.6-1h176.6q0.2 0 0.3 0 0.2 0.1 0.3 0.2 0.1 0.1 0.2 0.3 0.1 0.2 0.1 0.3v1q0 0.1-0.1 0.3-0.1 0.2-0.2 0.3-0.1 0.1-0.3 0.2-0.1 0-0.3 0h-113.5c-1.5 0-3.1 0.3-4.6 0.9-1.4 0.6-2.8 1.5-3.9 2.6-1.1 1.1-2 2.4-2.6 3.8-0.7 1.5-1 3-1.1 4.6z"/>
		<path id="Layer" class="s4" d="m263.3 235.9c0 1.6 0.4 3.1 0.9 4.5 0.6 1.5 1.5 2.8 2.6 3.9 1.1 1.1 2.4 1.9 3.9 2.5 1.4 0.6 2.9 0.9 4.5 0.9h113.8q0.2 0 0.3 0.1 0.2 0.1 0.3 0.2 0.1 0.1 0.2 0.3 0.1 0.1 0.1 0.3v0.9q0 0.2-0.1 0.4-0.1 0.1-0.2 0.3-0.1 0.1-0.3 0.1-0.1 0.1-0.3 0.1h-177c-1.9 0-3.8-0.4-5.6-1.1-1.8-0.7-3.4-1.8-4.7-3.2-1.4-1.3-2.4-3-3.1-4.7-0.8-1.8-1.1-3.7-1.1-5.6 0-2 0.4-3.8 1.2-5.6 0.8-1.8 1.9-3.4 3.3-4.7 1.3-1.3 3-2.4 4.8-3.1 1.7-0.7 3.6-1.1 5.6-1h176.6q0.2 0 0.3 0 0.2 0.1 0.3 0.2 0.1 0.1 0.2 0.3 0.1 0.2 0.1 0.3v1q0 0.1-0.1 0.3-0.1 0.2-0.2 0.3-0.1 0.1-0.3 0.2-0.1 0-0.3 0h-113.5c-1.5 0-3.1 0.3-4.6 0.9-1.4 0.6-2.8 1.5-3.9 2.6-1.1 1.1-2 2.4-2.6 3.8-0.7 1.5-1 3-1.1 4.6z"/>
		<path id="Layer" class="s2" d="m263.3 235.9c0 1.6 0.4 3.1 0.9 4.5 0.6 1.5 1.5 2.8 2.6 3.9 1.1 1.1 2.4 1.9 3.9 2.5 1.4 0.6 2.9 0.9 4.5 0.9h113.8q0.2 0 0.3 0.1 0.2 0.1 0.3 0.2 0.1 0.1 0.2 0.3 0.1 0.1 0.1 0.3v0.9q0 0.2-0.1 0.4-0.1 0.1-0.2 0.3-0.1 0.1-0.3 0.1-0.1 0.1-0.3 0.1h-114.5c-1.9 0-3.8-0.4-5.6-1.1-1.7-0.7-3.3-1.8-4.7-3.2-1.3-1.3-2.4-3-3.1-4.7-0.7-1.8-1.1-3.7-1.1-5.6 0-1.9 0.5-3.8 1.2-5.6 0.8-1.8 1.9-3.4 3.3-4.7 1.4-1.3 3-2.4 4.8-3.1 1.8-0.7 3.7-1.1 5.6-1h114.1q0.2 0 0.3 0 0.2 0.1 0.3 0.2 0.1 0.1 0.2 0.3 0.1 0.2 0.1 0.3v1q0 0.1-0.1 0.3-0.1 0.2-0.2 0.3-0.1 0.1-0.3 0.2-0.1 0-0.3 0h-113.5c-1.5 0-3.1 0.3-4.6 0.9-1.4 0.6-2.8 1.5-3.9 2.6-1.1 1.1-2 2.4-2.6 3.8-0.7 1.5-1 3-1.1 4.6z"/>
		<path id="Layer" class="s0" d="m275.8 232.6l-0.1 10.5 3.9-3.8 3.6 3.6v-10.3h-7.5z"/>
		<path id="Layer" class="s7" d="m263.3 235.9c0 1.6 0.4 3.1 0.9 4.5 0.6 1.5 1.5 2.8 2.6 3.9 1.1 1.1 2.4 1.9 3.9 2.5 1.4 0.6 2.9 0.9 4.5 0.9h113.8q0.2 0 0.3 0.1 0.2 0.1 0.3 0.2 0.1 0.1 0.2 0.3 0.1 0.1 0.1 0.3v0.9q0 0.2-0.1 0.4-0.1 0.1-0.2 0.3-0.1 0.1-0.3 0.1-0.1 0.1-0.3 0.1h-114.5c-1.9 0-3.8-0.4-5.6-1.1-1.7-0.7-3.3-1.8-4.7-3.2-1.3-1.3-2.4-3-3.1-4.7-0.7-1.8-1.1-3.7-1.1-5.6 0-1.9 0.5-3.8 1.2-5.6 0.8-1.8 1.9-3.4 3.3-4.7 1.4-1.3 3-2.4 4.8-3.1 1.8-0.7 3.7-1.1 5.6-1h114.1q0.2 0 0.3 0 0.2 0.1 0.3 0.2 0.1 0.1 0.2 0.3 0.1 0.2 0.1 0.3v1q0 0.1-0.1 0.3-0.1 0.2-0.2 0.3-0.1 0.1-0.3 0.2-0.1 0-0.3 0h-113.5c-1.5 0-3.1 0.3-4.6 0.9-1.4 0.6-2.8 1.5-3.9 2.6-1.1 1.1-2 2.4-2.6 3.8-0.7 1.5-1 3-1.1 4.6z"/>
		<path id="Layer" class="s4" d="m221 246.1q1 1.1 2.2 1.9 1.2 0.8 2.5 1.3 1.3 0.6 2.7 0.8 1.4 0.3 2.9 0.3h-9.7c-1.9 0-3.8-0.4-5.6-1.1-1.7-0.7-3.3-1.8-4.7-3.2-1.3-1.3-2.4-3-3.1-4.7-0.7-1.8-1.1-3.7-1.1-5.6 0.1-2 0.5-3.8 1.2-5.6 0.8-1.8 1.9-3.4 3.3-4.7 1.4-1.3 3-2.4 4.8-3.1 1.8-0.7 3.7-1.1 5.6-1h9.6c-1.9-0.1-3.8 0.3-5.6 1-1.8 0.7-3.4 1.8-4.8 3.1-1.3 1.3-2.4 2.9-3.2 4.7-0.8 1.8-1.2 3.7-1.3 5.6q0 1.4 0.3 2.8 0.3 1.5 0.8 2.8 0.6 1.3 1.4 2.5 0.8 1.2 1.8 2.2z"/>
	</g>
	<g id="freepik--speech-bubble--inject-16">
		<path id="Layer" class="s0" d="m79.1 137.4h19.6q1.2 0 2.3 0.5 1.1 0.4 1.9 1.3 0.9 0.8 1.3 1.9 0.5 1.1 0.5 2.3v17q0 1.2-0.5 2.3-0.4 1.1-1.3 2-0.8 0.8-1.9 1.3-1.1 0.4-2.3 0.4h-0.9l0.9 4.7-5-4.7h-14.6q-1.2 0-2.3-0.4-1.1-0.5-1.9-1.3-0.9-0.9-1.3-2-0.5-1.1-0.5-2.3v-17q0-1.2 0.5-2.3 0.4-1.1 1.3-1.9 0.8-0.9 1.9-1.3 1.1-0.5 2.3-0.5z"/>
		<path id="Layer" class="s13" d="m98.6 151.9c0 3.9-2.4 7.5-6 9-3.6 1.5-7.8 0.6-10.6-2.1-2.8-2.8-3.6-7-2.1-10.6 1.5-3.7 5.1-6 9-6 1.3 0 2.5 0.2 3.7 0.7 1.2 0.5 2.3 1.2 3.2 2.1 0.9 0.9 1.6 2 2.1 3.2 0.5 1.1 0.7 2.4 0.7 3.7z"/>
		<path id="Layer" class="s0" d="m87.9 156.2q-0.1 0-0.2 0-0.1 0-0.2-0.1-0.1 0-0.2-0.1 0 0-0.1-0.1l-3.8-4.5q-0.3-0.3-0.2-0.6 0-0.4 0.3-0.6 0.3-0.3 0.6-0.2 0.4 0 0.6 0.3l3.2 3.7 5.1-6.1q0.2-0.2 0.3-0.3 0.2 0 0.3 0 0.2-0.1 0.4 0 0.2 0 0.3 0.2 0.1 0.1 0.2 0.2 0.1 0.2 0.1 0.4 0 0.1 0 0.3-0.1 0.2-0.2 0.3l-5.9 6.9q0 0.1-0.1 0.1-0.1 0.1-0.2 0.1 0 0.1-0.1 0.1-0.1 0-0.2 0z"/>
	</g>
	<g id="freepik--Character--inject-16">
		<path id="Layer" class="s0" d="m147.9 258.8c0-3.9 3.2-7.1 7.1-7.1h39.3c3.9 0 7.1 3.2 7.1 7.1v65.6c0 3.9-3.2 7.1-7.1 7.1h-39.3c-3.9 0-7.1-3.2-7.1-7.1z"/>
		<path id="Layer" class="s12" d="m147.9 258.8c0-3.9 3.2-7.1 7.1-7.1h39.3c3.9 0 7.1 3.2 7.1 7.1v65.6c0 3.9-3.2 7.1-7.1 7.1h-39.3c-3.9 0-7.1-3.2-7.1-7.1z"/>
		<path id="Layer" class="s14" d="m190.4 331.5h-35.7q-1.3 0-2.6-0.6-1.2-0.5-2.2-1.4-0.9-1-1.5-2.2-0.5-1.3-0.5-2.6v-66.2q0-1.3 0.5-2.6 0.6-1.2 1.5-2.2 1-0.9 2.2-1.5 1.3-0.5 2.6-0.5h35.7q-1.3 0-2.6 0.5-1.2 0.6-2.2 1.5-0.9 1-1.5 2.2-0.5 1.3-0.5 2.6v66.2q0 1.3 0.5 2.6 0.6 1.2 1.5 2.2 1 0.9 2.2 1.4 1.3 0.6 2.6 0.6z"/>
		<path id="Layer" class="s2" d="m193.2 336.9h-114.2v-7.5h114.2z"/>
		<path id="Layer" class="s4" d="m193.2 336.9h-114.2v-7.5h114.2z"/>
		<path id="Layer" class="s4" d="m193.2 336.9h-64.8v-7.5h64.8z"/>
		<path id="Layer" class="s0" d="m158.4 286.7h-84.2l-12.9-66.3c-0.3-1.7-0.3-3.5 0.2-5.1 0.4-1.7 1.2-3.3 2.3-4.6 1.1-1.4 2.5-2.4 4-3.2 1.6-0.7 3.3-1.1 5.1-1.1h60.3q2 0 4 0.7 1.9 0.7 3.5 2 1.5 1.3 2.6 3 1 1.8 1.4 3.8z"/>
		<path id="Layer" class="s11" d="m158.4 286.7h-84.2l-12.9-66.3c-0.3-1.7-0.3-3.5 0.2-5.1 0.4-1.7 1.2-3.3 2.3-4.6 1.1-1.4 2.5-2.4 4-3.2 1.6-0.7 3.3-1.1 5.1-1.1h60.3q2 0 4 0.7 1.9 0.7 3.5 2 1.5 1.3 2.6 3 1 1.8 1.4 3.8z"/>
		<path id="Layer" class="s14" d="m98.1 286.7h-23.9l-12.9-66.3c-0.3-1.7-0.3-3.5 0.2-5.1 0.4-1.7 1.2-3.3 2.3-4.6 1.1-1.4 2.5-2.4 4-3.2 1.6-0.7 3.3-1.1 5.1-1.1q2 0 3.9 0.7 2 0.7 3.5 2 1.6 1.3 2.7 3 1 1.8 1.4 3.8z"/>
		<path id="Layer" class="s0" d="m71 291.8c0-3.2 2.6-5.9 5.9-5.9h119.4c3.2 0 5.9 2.7 5.9 5.9v33.7c0 3.3-2.7 6-5.9 6h-119.4c-3.3 0-5.9-2.7-5.9-6z"/>
		<path id="Layer" class="s11" d="m71 291.8c0-3.2 2.6-5.9 5.9-5.9h119.4c3.2 0 5.9 2.7 5.9 5.9v33.7c0 3.3-2.7 6-5.9 6h-119.4c-3.3 0-5.9-2.7-5.9-6z"/>
		<path id="Layer" class="s14" d="m71 291.8c0-3.2 2.6-5.9 5.9-5.9h51.1c3.2 0 5.9 2.7 5.9 5.9v33.7c0 3.3-2.7 6-5.9 6h-51.1c-3.3 0-5.9-2.7-5.9-6z"/>
		<path id="Layer" class="s2" d="m140.6 193.4c8.7 2.1 14.3 10.5 21.5 14 0.1 0.1 0 0.2 0 0.3l-3.3 2.8q-0.2 0.2-0.4 0.5-0.1 0.3-0.2 0.7-0.1 0.3-0.2 0.6-0.1 0.4-0.1 0.7c0 0.5 0.1 0.6 0.2 0.6q0-0.2 0-0.5 0-0.2-0.1-0.4 0-0.2-0.1-0.4 0-0.2-0.1-0.4c-1.3-3.7-3.8-7.8-5.9-11.3-1.2-2.1-2.5-4.2-3.7-6.2-0.6-1-0.8-2-0.6-3.1 0.1-1 0.7-2 1.4-2.7 0.8-0.8 1.8-1.2 2.9-1.3 1-0.1 2.1 0.2 2.9 0.8q0.8 0.6 1.6 1.1 0.8 0.6 1.6 1.2 0.7 0.6 1.5 1.2 0.7 0.6 1.5 1.2c5.9 5.4 13.6 12.7 13.4 21.5 0 3-2.1 7.5-5.4 8.7-12.1 5.9-23.5-4.6-32.1-11.1-0.4-0.2-0.6-0.4-0.8-0.5-0.1-0.1-0.2 0 0.2 0-11.8-3.3-7.7-20.4 4.4-18z"/>
		<path id="Layer" class="s6" d="m156.1 217c-1.1-0.1-2.2-0.3-3.2-0.4-1.1-0.2-2.3-0.4-3.4-0.7-1.1-0.2-2.1-0.5-3.2-0.8-2.1-0.5-4.1-1.2-6.1-2l-0.2-0.1q0.4-0.7 0.9-1.4 0.5-0.7 1.1-1.4 0.6-0.6 1.3-1.1 0.7-0.5 1.4-0.9c0.5-0.3 6.1 1.9 11.4 8.8z"/>
		<path id="Layer" class="s15" d="m194.7 317.2l12.2 0.9-0.3 14.5-10.3-0.8-1.6-14.6z"/>
		<path id="Layer" class="s6" d="m194.7 317.2l12.2 0.9-0.2 8.1-11.1-0.8-0.9-8.2z"/>
		<path id="Layer" class="s2" d="m194.9 336.9h2.6l0.8-1.1 1.4 1.1h16.1q0-0.5 0-0.9-0.1-0.5-0.1-1-0.1-0.5-0.3-0.9-0.1-0.5-0.3-0.9c-0.2-0.3-4.9-0.4-6.7-2.8q-0.1-0.1-0.1-0.1-0.1-0.1-0.2-0.1 0 0-0.1 0-0.1-0.1-0.2 0c-1.6 0.3-8 1.5-11.5 0.3q-0.1-0.1-0.2-0.1-0.2 0-0.3 0.1-0.1 0.1-0.2 0.2 0 0.1 0 0.3-0.1 0.7-0.1 1.5-0.1 0.7-0.2 1.4-0.1 0.8-0.2 1.5-0.1 0.8-0.2 1.5z"/>
		<path id="Layer" class="s0" d="m127.7 254.7c0 0-18.3 34 3.3 34 27.2 0 53.1-6.9 53.1-6.9 0 0-1.4 14.5 9 42l14.7-0.1c0 0 5.7-59.1-5.2-69-8.8-8-40.2-5.4-40.2-5.4z"/>
		<path id="Layer" class="s6" d="m187.4 301.4q-0.3 1.1-0.6 2.1c-3.4-14.3-2.7-21.7-2.7-21.7 0 0-25.9 6.8-53 6.8-13.2 0-11.6-12.5-8.3-22.4 9.2-5.9 19-11.2 26-14.8l13.6-2.2c0 0 5.7-0.4 12.8-0.3 10.6 4.7 20.8 17.7 12.2 52.5z"/>
		<path id="Layer" class="s2" d="m161.6 249.7c-15.8 8.7-56.1 6.3-63.3 5.1-0.9-11.9-2-30.9-5.8-45-0.4-1.5-0.5-3.1-0.3-4.6 0.3-1.6 0.8-3.1 1.6-4.4 0.8-1.4 1.9-2.5 3.1-3.4 1.3-0.9 2.8-1.6 4.3-1.9q4.2-0.8 8.4-1.4 4.2-0.6 8.5-1 4.3-0.3 8.5-0.4 4.3-0.2 8.6-0.1c4 0.2 8.3 2.1 9.5 5.9 5.9 17.5 15.2 31.7 16.9 51.2z"/>
		<path id="Layer" class="s15" d="m125.3 201.8c-6.7 0.3-12.4-5.3-15.5-7.3 3.3-2.3 5-6.5 5.6-8.9 0.3-1 0.4-1.7 0.4-1.7l11.3 5q-0.3 0.6-0.4 1.1-0.2 0.6-0.2 1.2 0 0.5 0 1.1 0.1 0.6 0.2 1.1 0.5 0.3 1 0.6 0.5 0.3 0.9 0.8 0.4 0.4 0.7 0.8 0.3 0.5 0.5 1 0 0.1 0 0.1 0 0 0 0 0 0 0 0 0 0 0 0c0.9 2.3 2 4.7-4.5 5.1z"/>
		<path id="Layer" class="s6" d="m129.9 196.8c-6.7 2.7-13.3-5.4-14.5-11.2 0.3-1 0.4-1.7 0.4-1.7l11.3 5q-0.3 0.6-0.4 1.1-0.2 0.6-0.2 1.2 0 0.5 0 1.1 0.1 0.6 0.2 1.1 0.5 0.3 1 0.6 0.5 0.3 0.9 0.8 0.4 0.4 0.7 0.8 0.3 0.5 0.5 1 0 0.1 0 0.1 0 0 0 0 0.1 0 0.1 0 0 0 0 0.1z"/>
		<path id="Layer" class="s0" d="m125.7 201.8l-2.5-2.3-3.9 2c0 0 2.1 2.1 6.4 0.3z"/>
		<path id="Layer" class="s12" d="m125.7 201.8l-2.5-2.3-3.9 2c0 0 2.1 2.1 6.4 0.3z"/>
		<path id="Layer" class="s0" d="m111.4 192.9c0 0 4.7 6.5 11.8 6.6q-1 0.5-1.9 1.3-0.9 0.7-1.6 1.5-0.7 0.9-1.2 1.9-0.5 1-0.8 2-1.9-0.6-3.6-1.8-1.6-1.1-2.8-2.7-1.3-1.6-2-3.5-0.7-1.9-0.9-3.9 0.3-0.3 0.6-0.6 0.3-0.2 0.7-0.4 0.4-0.2 0.8-0.3 0.4-0.1 0.9-0.1z"/>
		<path id="Layer" class="s0" d="m125.7 201.8l3.3-2.9 3.8 1.1c0 0-3.3 3.4-7.1 1.8z"/>
		<path id="Layer" class="s12" d="m125.7 201.8l3.3-2.9 3.8 1.1c0 0-3.3 3.4-7.1 1.8z"/>
		<path id="Layer" class="s0" d="m126.7 193.5c0 0 2.4 3.1 2.3 5.4 3.2 0.9 4.3 5.7 4.3 5.7 0 0 1.4-7-3.5-10.6q-0.3-0.2-0.7-0.3-0.4-0.2-0.8-0.2-0.4-0.1-0.8-0.1-0.4 0-0.8 0.1z"/>
		<path id="Layer" class="s5" d="m111.4 192.9c0 0 4.7 6.5 11.8 6.6q-1 0.5-1.9 1.3-0.9 0.7-1.6 1.5-0.7 0.9-1.2 1.9-0.5 1-0.8 2-1.9-0.6-3.6-1.8-1.6-1.1-2.8-2.7-1.3-1.6-2-3.5-0.7-1.9-0.9-3.9 0.3-0.3 0.6-0.6 0.3-0.2 0.7-0.4 0.4-0.2 0.8-0.3 0.4-0.1 0.9-0.1z"/>
		<path id="Layer" class="s5" d="m126.7 193.5c0 0 2.4 3.1 2.3 5.4 3.2 0.9 4.3 5.7 4.3 5.7 0 0 1.4-7-3.5-10.6q-0.3-0.2-0.7-0.3-0.4-0.2-0.8-0.2-0.4-0.1-0.8-0.1-0.4 0-0.8 0.1z"/>
		<path id="Layer" class="s15" d="m171.3 318.4l12.2-1.3 2.1 14.3-10.2 1.1-4.1-14.1z"/>
		<path id="Layer" class="s6" d="m171.3 318.4l12.2-1.3 1.2 8-11.1 1.2-2.3-7.9z"/>
		<path id="Layer" class="s2" d="m173.7 336.9h2.6l0.7-1.1 1.4 1.1h16.1q0.1-0.5 0-0.9 0-0.5-0.1-1-0.1-0.5-0.2-0.9-0.2-0.5-0.4-0.9c-0.1-0.3-4.8-0.4-6.6-2.8q-0.1-0.1-0.1-0.1-0.1-0.1-0.2-0.1-0.1 0-0.2 0 0-0.1-0.1 0c-1.6 0.3-8 1.5-11.5 0.3q-0.1-0.1-0.3-0.1-0.1 0-0.2 0.1-0.1 0.1-0.2 0.2-0.1 0.1-0.1 0.3 0 0.7-0.1 1.5 0 0.7-0.1 1.4-0.1 0.8-0.2 1.5-0.1 0.8-0.2 1.5z"/>
		<path id="Layer" class="s0" d="m98.7 254.7c0 0-7.6 25.1 12.9 32 20.4 6.9 40.7-5.3 40.7-5.3 0 0 0 5.3 18.2 44.1l15.1-2.8c0 0-5.3-58.2-12-68-6.6-9.9-40.1-5.5-40.1-5.5z"/>
		<path id="Layer" class="s15" d="m152.5 186.8l-3.4 3.9c-4.8 2.6-7-4.1-7-4.1l-3.6-4q-0.3-0.4-0.4-0.8-0.2-0.5-0.1-1 0-0.5 0.2-0.9 0.2-0.5 0.5-0.8l2.3-2.8q0.4-0.4 0.9-0.7 0.4-0.3 1-0.4 0.5-0.1 1.1 0.1 0.5 0.1 1 0.4l3.6 3.2q0.2 0.3 0.5 0.5 0.2 0.3 0.4 0.5 0.2 0.3 0.4 0.6 0.2 0.3 0.3 0.7z"/>
		<path id="Layer" class="s6" d="m126.9 231.3c0 0-9.3 18.9-28.6 23.5-0.8-10.3-1.6-26.9-4.4-39.3 3.9-2.3 14.5-4.8 14.5-4.8q0 1.8 0.2 3.5 0.2 1.7 0.6 3.4 0.3 1.7 0.9 3.3 0.5 1.7 1.2 3.2 1.9-0.7 3.9-1.3 2-0.7 4-1.2 2-0.5 4.1-0.8 2-0.4 4.1-0.6c2.8-0.4-0.5 11.1-0.5 11.1z"/>
		<path id="Layer" class="s2" d="m107.4 211.8q0.2-0.2 0.4-0.3 0.2-0.2 0.4-0.4 0.2-0.2 0.3-0.4 0.2-0.2 0.3-0.4c0.2-0.2 0.1-0.2 0.1-0.1 0 0.1-0.2 0.6-0.3 1-1.4 5.9-2.3 13.2-0.6 19 0.2 0.4 0.2 0.4-0.2 0.3l2.6 2.4q-0.2-0.3-0.3-0.4-0.2-0.2-0.4-0.4-0.2-0.2-0.4-0.4-0.2-0.1-0.4-0.3c-0.9-0.6-3.1-1.1-3.6-0.7-0.2 0.2 0.5 0.1 1.1-0.1 5.6-2.1 11.3-6.2 16.6-9.2 0.9-0.5 1.9-0.7 3-0.5 1 0.1 2 0.6 2.7 1.4 0.7 0.7 1.2 1.7 1.3 2.7 0.1 1.1-0.2 2.1-0.7 3-5.2 7.6-15.8 21-26.4 18.6q-0.9-0.2-1.8-0.6-0.8-0.3-1.6-0.9-0.8-0.5-1.5-1.1-0.7-0.7-1.2-1.4l2.6 2.4c-5.1-2.9-7.6-7.5-9-12.3q-0.9-3.3-1.3-6.7-0.4-3.4-0.4-6.8 0-3.4 0.5-6.7 0.5-3.4 1.5-6.7c1-3 2.3-6.2 5-8.4 1.9-1.5 4.4-2.2 6.8-1.9 2.4 0.3 4.6 1.5 6.1 3.4 1.5 1.8 2.2 4.2 2 6.6-0.2 2.5-1.3 4.7-3.2 6.3z"/>
		<path id="Layer" class="s0" d="m147.2 194.1l-2-2.2q1.1-0.6 2.1-1.3 1-0.7 2-1.5 1-0.8 1.9-1.6 0.9-0.8 1.8-1.7l3.6 0.9c0 0-3.3 6.9-9.4 7.4z"/>
		<path id="Layer" class="s12" d="m147.2 194.1l-2-2.2q1.1-0.6 2.1-1.3 1-0.7 2-1.5 1-0.8 1.9-1.6 0.9-0.8 1.8-1.7l3.6 0.9c0 0-3.3 6.9-9.4 7.4z"/>
		<path id="Layer" class="s1" d="m172.1 195.6l-2.9 8.9-10.3 18.1c0 0-24.9 3.5-25.5-3.9-0.5-6.5 1.2-17.3 1.6-19.4l0.1-0.4c13.9 1.4 22.8 6.6 22.8 6.6 4.3-7 14.2-9.9 14.2-9.9z"/>
		<path id="Layer" class="s14" d="m172.1 195.6l-2.9 8.9-10.3 18.1c0 0-24.9 3.5-25.5-3.9-0.5-6.5 1.2-17.3 1.6-19.4 10.2 0.9 22.9 7.1 22.9 7.1 1.4-4.4 14.2-10.8 14.2-10.8z"/>
		<path id="Layer" class="s0" d="m168.9 225c0 0-4.6 2.1-12.4 8.3q-0.2 0.1-0.4 0.3-0.2 0.1-0.4 0.2-0.2 0.1-0.4 0.1-0.2 0.1-0.4 0.2-0.2 0.1-0.5 0.1-0.3 0.1-0.6 0.1-0.3 0-0.6-0.1-0.3 0-0.5 0-2.6-0.7-5.1-1.2-2.5-0.5-5.1-0.9-2.5-0.4-5.1-0.8-2.6-0.3-5.2-0.6c-1.7-0.1-0.9-17 1-29.6 0 0 14 1.2 24.7 5.3 0.3-0.2 10.2-8.3 16.5-9.3 0-0.1-7.9 16.3-5.5 27.9z"/>
		<path id="Layer" class="s14" d="m168.9 225c0 0-4.6 2.1-12.4 8.3q-0.2 0.1-0.4 0.3-0.2 0.1-0.4 0.2-0.2 0.1-0.4 0.1-0.2 0.1-0.4 0.2c0.5-6.9 1.8-24.8 3-27.7 0.3-0.2 10.2-8.3 16.5-9.3 0-0.1-7.9 16.3-5.5 27.9z"/>
		<path id="Layer" class="s0" d="m157 206.1q0.3 0 0.5 0 0.3 0 0.5-0.1 0.3-0.1 0.5-0.2 0.3-0.1 0.5-0.2c0.1-0.2-1.4 12.8-2.7 27.8q-0.1 0.4-0.4 0.6-0.3 0.3-0.7 0.4-0.4 0.2-0.8 0.1-0.4 0-0.7-0.1c-0.3-0.1 1.4-19.3 3.3-28.3z"/>
		<path id="Layer" class="s4" d="m157 206.1q0.3 0 0.5 0 0.3 0 0.5-0.1 0.3-0.1 0.5-0.2 0.3-0.1 0.5-0.2c0.1-0.2-1.4 12.8-2.7 27.8q-0.1 0.4-0.4 0.6-0.3 0.3-0.7 0.4-0.4 0.2-0.8 0.1-0.4 0-0.7-0.1c-0.3-0.1 1.4-19.3 3.3-28.3z"/>
		<path id="Layer" class="s8" d="m161.1 209.5c0 0 4.7-4 8.7-4.9l-0.6 2.5q-1.2 0.4-2.4 1-1.1 0.6-2.2 1.3-1 0.7-2 1.5-1 0.8-2 1.7z"/>
		<path id="Layer" class="s14" d="m135.6 223.4c0 0 12 2 15.3 3.2v4.8c0 0-10-2.2-15.4-2.8z"/>
		<path id="Layer" class="s8" d="m163.6 205.3l-0.3 1.1q0.6-0.4 1.2-0.8 0.6-0.3 1.2-0.7 0.7-0.3 1.3-0.6 0.6-0.3 1.3-0.6l0.4-1.5q-0.7 0.3-1.3 0.6-0.7 0.4-1.4 0.8-0.6 0.3-1.2 0.8-0.7 0.4-1.2 0.9z"/>
		<path id="Layer" class="s15" d="m125.3 221.3l0.9 4.8c2.7 4.4 7.7 0 7.7 0l3.3-1.2q0.4-0.2 0.8-0.5 0.3-0.3 0.5-0.7 0.2-0.4 0.3-0.9 0-0.4-0.1-0.9l-0.6-3.3q-0.1-0.6-0.3-1-0.3-0.5-0.7-0.8-0.4-0.4-0.9-0.5-0.5-0.2-1-0.1l-3 0.5q-0.4 0.1-0.7 0.2-0.3 0.1-0.6 0.2-0.3 0.1-0.6 0.3-0.3 0.2-0.5 0.4z"/>
		<path id="Layer" class="s0" d="m123.8 220.3l3.4-0.5q0 1.2 0.1 2.3 0 1.2 0.2 2.3 0.2 1.1 0.6 2.3 0.3 1.1 0.7 2.1l-2.2 4.4c0 0-5.5-7.4-2.8-12.9z"/>
		<path id="Layer" class="s12" d="m123.8 220.3l3.4-0.5q0 1.2 0.1 2.3 0 1.2 0.2 2.3 0.2 1.1 0.6 2.3 0.3 1.1 0.7 2.1l-2.2 4.4c0 0-5.5-7.4-2.8-12.9z"/>
		<path id="Layer" class="s2" d="m139.7 179.2l-3.3-0.5q0 0-0.1-0.1 0 0 0 0-0.1-0.1-0.1-0.1 0-0.1 0-0.1 0-0.1 0.1-0.1 0-0.1 0-0.1 0.1 0 0.1 0 0.1 0 0.1 0l3.2 0.5q0.1 0 0.1 0 0.1 0 0.1 0.1 0 0 0 0.1 0 0 0 0.1 0 0 0 0 0 0.1-0.1 0.1 0 0 0 0.1-0.1 0-0.1 0z"/>
		<path id="Layer" class="s2" d="m139.9 174.6c-1 3.3-3.4 6.5-5.7 4.5q-0.3-0.4-0.6-0.8-0.2-0.5-0.3-0.9-0.1-0.5-0.1-1 0-0.5 0.2-0.9c0.7-3.5 3.9-7.6 3.9-7.6 0 0 2.2-1.1 3 2.5q0.1 0.5 0.1 1 0 0.6 0 1.1-0.1 0.6-0.2 1.1-0.1 0.5-0.3 1z"/>
		<path id="Layer" class="s12" d="m139.9 174.6c-1 3.3-3.4 6.5-5.7 4.5q-0.3-0.4-0.6-0.8-0.2-0.5-0.3-0.9-0.1-0.5-0.1-1 0-0.5 0.2-0.9 0.4-0.4 0.8-0.7 0.5-0.3 0.9-0.6 0.5-0.3 0.9-0.6 0.5-0.3 1-0.5c0.3-0.2 1.4-0.6 2.9 1.5z"/>
		<path id="Layer" class="s15" d="m133 165.3c-7.1-4.7-16.2-0.7-17.3 6.9-1.1 7.5-1.7 12.7 2.2 17 7.9 8.3 14.3 5.5 17.8-1.6 3.2-6.3 4.5-17.7-2.7-22.3z"/>
		<path id="Layer" class="s6" d="m126.8 177.1q-0.3-0.2-0.7-0.3-0.3-0.2-0.7-0.2-0.3-0.1-0.7-0.1-0.4 0-0.8 0 0.4 0.2 0.7 0.3 0.4 0.1 0.7 0.2 0.4 0.1 0.7 0.1 0.4 0 0.8 0z"/>
		<path id="Layer" class="s6" d="m126.6 177.8q-0.3-0.1-0.7-0.2-0.3 0-0.6 0-0.4 0-0.7 0.1-0.3 0.1-0.6 0.2 0.3 0.1 0.6 0.1 0.3 0 0.7 0 0.3 0 0.6 0 0.4-0.1 0.7-0.2z"/>
		<path id="Layer" class="s2" d="m137.3 171c-2 2.8-7.2-2-11.5-3.8q-0.5-0.3-1.1-0.2-0.6 0-1.1 0.3-0.5 0.3-0.9 0.7-0.3 0.5-0.4 1.1 0 0.1 0 0.2 0 0.1 0 0.3 0 0.1 0 0.2 0 0.1 0 0.3c0.8 3.1-1.8 4.7-1.5 6.5 0.8 4.2-2.5 4.4-6.5 1.8q-0.2-0.1-0.4-0.3-0.2-0.1-0.3-0.3-0.2-0.1-0.4-0.3-0.1-0.2-0.3-0.4c-2-1.3-2.5-3.9-1.8-7q0.2-0.7 0.4-1.4 0.2-0.6 0.4-1.3 0.2-0.7 0.5-1.3 0.3-0.6 0.6-1.3c2.5-5.4 11.8-6.2 11.8-6.2 0 0 8.8-1.5 11.9 3.8 3.1 5.2 0.6 8.6 0.6 8.6z"/>
		<path id="Layer" class="s2" d="m128 177.7c-0.2 0.6 0.1 1.3 0.5 1.4 0.4 0 0.9-0.4 1-1 0.1-0.7-0.1-1.3-0.5-1.4-0.4-0.1-0.8 0.4-1 1z"/>
		<path id="Layer" class="s2" d="m135.7 179.4c-0.2 0.7 0 1.3 0.5 1.4 0.4 0.1 0.9-0.4 1-1 0.1-0.7-0.1-1.3-0.5-1.4-0.5 0-0.9 0.4-1 1z"/>
		<path id="Layer" class="s2" d="m126.1 175.4q0 0 0 0 0 0-0.1 0 0-0.1 0-0.1 0 0-0.1 0 0 0-0.1-0.1 0-0.1 0-0.1 0-0.1 0-0.2 0-0.1 0.1-0.1 0.2-0.4 0.6-0.7 0.3-0.4 0.7-0.6 0.5-0.2 0.9-0.3 0.5-0.1 0.9-0.1 0.1 0 0.2 0 0.1 0 0.1 0.1 0.1 0.1 0.1 0.1 0 0.1 0 0.2 0 0.1 0 0.1-0.1 0.1-0.1 0.2-0.1 0-0.1 0-0.1 0.1-0.2 0-0.4 0.1-0.7 0.2-0.4 0.1-0.7 0.2-0.3 0.2-0.6 0.5-0.3 0.2-0.5 0.5 0 0.1-0.1 0.1 0 0-0.1 0.1 0 0-0.1 0 0 0-0.1 0z"/>
		<path id="Layer" class="s2" d="m139.1 177.6q-0.1-0.1-0.1-0.1 0 0-0.1 0 0-0.1 0-0.1-0.1-0.1-0.1-0.1-0.1-0.4-0.2-0.7-0.2-0.3-0.5-0.6-0.2-0.3-0.5-0.5-0.3-0.2-0.6-0.3-0.1-0.1-0.2-0.1 0-0.1-0.1-0.1 0-0.1 0-0.2 0 0 0-0.1 0-0.1 0.1-0.2 0 0 0.1-0.1 0.1 0 0.1 0 0.1 0 0.2 0 0.4 0.2 0.8 0.4 0.4 0.3 0.7 0.7 0.3 0.3 0.5 0.7 0.3 0.4 0.4 0.9 0 0 0 0.1 0 0.1-0.1 0.2 0 0-0.1 0.1 0 0-0.1 0.1 0 0 0 0-0.1 0-0.1 0 0 0-0.1 0 0 0 0 0z"/>
		<path id="Layer" class="s12" d="m120.8 176.7c0.9 4.2-2.5 4.4-6.4 1.8q-0.2-0.2-0.4-0.3-0.2-0.1-0.4-0.3-0.2-0.2-0.3-0.4-0.2-0.2-0.3-0.4c-2.1-1.2-2.5-3.8-1.8-7q1 0.2 2.1 0.2 1.1 0 2.1-0.1 1.1-0.2 2.1-0.5 1-0.4 2-0.9-0.1 0.2-0.3 0.4-0.1 0.2-0.3 0.4-0.2 0.1-0.3 0.3-0.2 0.1-0.5 0.2 0.6 0.1 1.1 0.1 0.6 0 1.1-0.1 0.6-0.1 1.1-0.4 0.5-0.2 0.9-0.6 0 0.2 0 0.3 0 0.1 0 0.2 0 0.2 0 0.3 0 0.1 0 0.2c0.8 3.2-1.8 4.8-1.5 6.6z"/>
		<path id="Layer" class="s16" d="m133 178.4l-1.6 5.4q0.3 0.2 0.7 0.3 0.3 0.1 0.7 0.2 0.4 0 0.8 0 0.3-0.1 0.7-0.2 0-0.7 0-1.5-0.1-0.7-0.3-1.4-0.1-0.7-0.4-1.4-0.3-0.7-0.6-1.4z"/>
		<path id="Layer" class="s2" d="m130.9 187.8h-0.1c-0.1 0-3.3-1.2-4.4-3.3q0-0.1 0-0.2 0.1-0.2 0.2-0.2 0.1-0.1 0.3-0.1 0.1 0.1 0.2 0.2c0.9 1.8 3.9 2.9 3.9 2.9q0.1 0 0.2 0.1 0 0 0 0.1 0.1 0 0.1 0.1 0 0.1 0 0.2-0.1 0-0.1 0.1 0 0-0.1 0 0 0.1-0.1 0.1 0 0-0.1 0z"/>
		<path id="Layer" class="s2" d="m120.9 178.8c0 0-0.2 4.4 1.6 6.6 0 0 2.7-3.3 5.1-3.3 2.4 0 3.3 2.8 3.3 2.8l-0.8 0.5c0 0-1.2-2.1-2.5-2.3-1.3-0.1-4.3 2.8-3.6 4.3 0.6 1.6 3.6 0 3.6 0l1.2 0.7c0 0-1.8 2.9 1.7 2.7 3.4-0.3 3.7-4.5 0.4-4.9l0.5-1c0 0 3.4 0.2 4 3.3 0.6 3.2-1 8-8.9 7.2-4.1-0.5-11.7-5.1-8.1-15.5z"/>
		<path id="Layer" class="s2" d="m134.3 178q0 0 0 0-0.1 0-0.1 0 0 0 0 0 0 0-0.1-0.1-0.1-0.1-0.4-0.2-0.2-0.1-0.4-0.2-0.2 0-0.5 0-0.2 0-0.4 0-0.1 0-0.1 0-0.1 0-0.1 0-0.1 0-0.1-0.1 0 0 0-0.1-0.1 0-0.1-0.1 0 0 0.1 0 0-0.1 0-0.1 0.1-0.1 0.1-0.1 0.3 0 0.6 0 0.3 0 0.6 0 0.3 0.1 0.6 0.2 0.2 0.2 0.5 0.4 0 0 0 0 0 0.1 0 0.1 0 0.1 0 0.1 0 0.1 0 0.1-0.1 0-0.1 0 0 0.1 0 0.1 0 0-0.1 0 0 0 0 0z"/>
		<path id="Layer" class="s2" d="m124.8 175.6l-7.8-1.7q-0.3 0-0.6 0-0.3 0.1-0.6 0.2-0.2 0.2-0.4 0.4-0.2 0.3-0.2 0.6v0.1q-0.1 0.1-0.2 0.2 0 0-0.1 0-0.1 0-0.2-0.1-0.1-0.1 0-0.2v-0.2q0.1-0.3 0.3-0.7 0.2-0.3 0.6-0.5 0.3-0.2 0.7-0.3 0.4 0 0.8 0l7.8 1.7q0 0 0.1 0.1 0 0 0 0 0.1 0.1 0.1 0.1 0 0.1 0 0.1 0 0.1-0.1 0.1 0 0 0 0.1 0 0-0.1 0 0 0-0.1 0z"/>
		<path id="Layer" fill-rule="evenodd" class="s2" d="m137.2 182.8q0 0-0.1 0 0 0 0 0-0.1 0-0.1 0 0 0-0.1 0l-1.2-0.3q-0.3-0.1-0.6-0.4-0.4-0.2-0.6-0.5-0.2-0.4-0.2-0.8-0.1-0.4-0.1-0.8v-2.3q0 0 0-0.1 0 0 0.1 0 0-0.1 0-0.1 0 0 0.1 0 0.3-0.1 0.7-0.2 0.3-0.1 0.7-0.1 0.4 0 0.8 0 0.3 0.1 0.7 0.2 0.4 0 0.7 0.2 0.4 0.1 0.7 0.3 0.3 0.1 0.6 0.4 0.3 0.2 0.5 0.5 0.1 0 0.1 0.1 0 0 0 0 0 0.1 0 0.1 0 0-0.1 0l-1.1 2.6q-0.1 0.2-0.2 0.5-0.2 0.2-0.4 0.3-0.2 0.2-0.4 0.3-0.2 0.1-0.5 0.1zm-2.4-2.8c0 1 0.4 1.8 1.1 2l1.2 0.3c0.4 0.1 1-0.3 1.3-0.9l1-2.5q-0.2-0.2-0.5-0.4-0.2-0.1-0.5-0.3-0.3-0.1-0.6-0.2-0.3-0.1-0.6-0.2-0.3-0.1-0.6-0.1-0.3 0-0.6 0-0.3 0-0.6 0-0.3 0.1-0.6 0.2z"/>
		<path id="Layer" fill-rule="evenodd" class="s2" d="m128.6 180.7q-0.1 0-0.2 0-0.1 0-0.1 0-0.1 0-0.2 0-0.1-0.1-0.2-0.1l-1.7-0.4q-0.3-0.1-0.6-0.2-0.3-0.2-0.5-0.5-0.2-0.3-0.4-0.6-0.1-0.3-0.1-0.7v-2.8q0 0 0-0.1 0 0 0.1-0.1 0 0 0 0 0 0 0.1-0.1c0 0 1.2-0.4 4 0.2q0.5 0.1 0.9 0.3 0.5 0.1 1 0.3 0.4 0.2 0.8 0.5 0.5 0.2 0.9 0.5 0 0.1 0 0.1 0 0.1 0 0.1 0 0 0 0.1 0 0 0 0.1l-1.3 2q-0.2 0.3-0.5 0.6-0.2 0.3-0.6 0.4-0.3 0.2-0.7 0.3-0.3 0.1-0.7 0.1zm-3.5-5.1v2.6q0 0.3 0.1 0.5 0.1 0.3 0.2 0.5 0.2 0.2 0.4 0.3 0.2 0.2 0.5 0.2l1.7 0.4q0.4 0.1 0.8 0.1 0.3 0 0.7-0.2 0.4-0.1 0.6-0.4 0.3-0.2 0.5-0.6l1.2-1.8q-0.4-0.3-0.8-0.5-0.4-0.2-0.8-0.4-0.4-0.2-0.8-0.3-0.4-0.1-0.8-0.2-0.5-0.1-0.9-0.2-0.4-0.1-0.9-0.1-0.4 0-0.8 0-0.5 0-0.9 0.1z"/>
		<path id="Layer" class="s15" d="m111.5 177.8q0.2 0.6 0.5 1.2 0.3 0.6 0.7 1.1 0.4 0.6 1 1 0.5 0.4 1.1 0.7c2 1.2 3.6-0.6 3.5-2.8-0.1-2-1.3-5.1-3.6-5.3q-0.8-0.1-1.5 0.2-0.7 0.4-1.2 1-0.5 0.6-0.6 1.4-0.1 0.7 0.1 1.5z"/>
		<path id="Layer" class="s0" d="m61.1 258.8c0-3.9 3.2-7.1 7-7.1h39.4c3.9 0 7 3.2 7 7.1v65.6c0 3.9-3.1 7.1-7 7.1h-39.4c-3.8 0-7-3.2-7-7.1z"/>
		<path id="Layer" class="s11" d="m61.1 258.8c0-3.9 3.2-7.1 7-7.1h39.4c3.9 0 7 3.2 7 7.1v65.6c0 3.9-3.1 7.1-7 7.1h-39.4c-3.8 0-7-3.2-7-7.1z"/>
		<path id="Layer" class="s6" d="m103.6 331.5h-35.7q-1.4 0-2.6-0.6-1.3-0.5-2.2-1.4-1-1-1.5-2.2-0.5-1.3-0.5-2.6v-66.2q0-1.3 0.5-2.6 0.5-1.2 1.5-2.2 0.9-0.9 2.2-1.5 1.2-0.5 2.6-0.5h35.7q-1.4 0-2.6 0.5-1.3 0.6-2.2 1.5-1 1-1.5 2.2-0.5 1.3-0.5 2.6v66.2q0 1.3 0.5 2.6 0.5 1.2 1.5 2.2 0.9 0.9 2.2 1.4 1.2 0.6 2.6 0.6z"/>
	</g>
</svg>