<?xml version="1.0" standalone="no"?><svg xmlns="http://www.w3.org/2000/svg" viewBox="0 0 1440 320"><path fill="#81A5F7" fill-opacity="1" d="M0,64L30,69.3C60,75,120,85,180,101.3C240,117,300,139,360,154.7C420,171,480,181,540,165.3C600,149,660,107,720,128C780,149,840,235,900,266.7C960,299,1020,277,1080,250.7C1140,224,1200,192,1260,192C1320,192,1380,224,1410,240L1440,256L1440,320L1410,320C1380,320,1320,320,1260,320C1200,320,1140,320,1080,320C1020,320,960,320,900,320C840,320,780,320,720,320C660,320,600,320,540,320C480,320,420,320,360,320C300,320,240,320,180,320C120,320,60,320,30,320L0,320Z"></path></svg>